# xmcd
#
# Track frame offsets: 
#        182
#        5177
#        8625
#        26115
#        27742
#        40262
#        57037
#        76760
#        91390
#        96695
#        113990
#        128905
#        148680
#        165975
#        187502
#        207200
#        228982
#        251270
#        258085
#        276430
#        284935
#
# Disc length: 3984 seconds
#
# Revision: 5
# Processed by: cddbd v1.5.2PL0 Copyright (c) Steve Scherf et al.
# Submitted via: ExactAudioCopyFreeDBPlugin 1.0
#
DISCID=240f8e15
DTITLE=Jaheim - Ghetto Love
DYEAR=2001
DGENRE=R&B
TTITLE0=Intro
TTITLE1=Du and Jah
TTITLE2=Looking For Love
TTITLE3=Answering Machine (Interlude)
TTITLE4=Let It Go Feat. Castro
TTITLE5=Could It Be
TTITLE6=Ghetto Love
TTITLE7=Happiness
TTITLE8=Jah's Seed (Interlude)
TTITLE9=Lil' Nigga Ain't Mine Feat. Castro, Duganz and Precise
TTITLE10=Finders Keepers Feat. Lil' Mo
TTITLE11=Just In Case
TTITLE12=Heaven In My Eyes
TTITLE13=Anything Feat. Next
TTITLE14=Waitin' on You Feat. Miss Jones
TTITLE15=Remarkable Feat. Terry Dexter
TTITLE16=Redy, Willing and Able
TTITLE17=Love Is Still Here
TTITLE18=Forever
TTITLE19=For Moms
TTITLE20=Could It Be (Anything You Want Remix)
EXTD=
EXTT0=
EXTT1=
EXTT2=
EXTT3=
EXTT4=
EXTT5=
EXTT6=
EXTT7=
EXTT8=
EXTT9=
EXTT10=
EXTT11=
EXTT12=
EXTT13=
EXTT14=
EXTT15=
EXTT16=
EXTT17=
EXTT18=
EXTT19=
EXTT20=
PLAYORDER=
